<svg xmlns="http://www.w3.org/2000/svg" viewBox="0 0 1667 438" role="img" aria-label="Monl Compiler">
  <path d="M179.00 0.50L179.00 0.00L184.50 0.50L190.00 1.00L194.00 4.50L198.00 8.00L199.00 16.50L200.00 25.00L198.50 28.00Q197.00 31.00 192.50 34.50Q188.00 38.00 160.50 47.00Q133.00 56.00 117.50 66.00Q102.00 76.00 88.50 89.00Q75.00 102.00 66.50 114.00Q58.00 126.00 46.50 155.00L35.00 184.00L29.50 187.50L24.00 191.00L16.00 189.50L8.00 188.00L4.50 180.00L1.00 172.00L5.50 156.50Q10.00 141.00 20.50 120.50Q31.00 100.00 41.00 87.00Q51.00 74.00 69.00 57.50Q87.00 41.00 101.00 32.00Q115.00 23.00 130.50 16.00Q146.00 9.00 162.50 5.00L179.00 1.00L179.00 0.50ZM255.00 0.50L255.00 0.00L271.00 2.50Q287.00 5.00 307.50 13.50Q328.00 22.00 343.00 31.50Q358.00 41.00 374.00 56.00Q390.00 71.00 400.50 85.00Q411.00 99.00 421.00 119.00Q431.00 139.00 435.50 156.00L440.00 173.00L437.00 180.00L434.00 187.00L430.00 189.00Q426.00 191.00 420.50 191.00L415.00 191.00L410.00 187.50L405.00 184.00L399.00 165.00Q393.00 146.00 387.00 134.00Q381.00 122.00 371.00 108.50Q361.00 95.00 350.00 84.50Q339.00 74.00 319.00 62.00Q299.00 50.00 276.50 44.00Q254.00 38.00 250.00 35.50Q246.00 33.00 243.50 28.00Q241.00 23.00 241.00 18.50L241.00 14.00L244.50 8.50L248.00 3.00L251.50 2.00L255.00 1.00L255.00 0.50ZM552.00 107.50L552.00 107.00L564.00 107.50L576.00 108.00L617.50 153.50L659.00 199.00L701.50 153.50L744.00 108.00L757.50 108.00L771.00 108.00L773.00 111.00L775.00 114.00L774.00 192.00L773.00 270.00L770.50 271.50Q768.00 273.00 757.50 273.00L747.00 273.00L743.50 269.00L740.00 265.00L740.00 212.50L740.00 160.00L700.50 201.00L661.00 242.00L655.50 238.50Q650.00 235.00 615.50 197.50L581.00 160.00L581.00 213.00L581.00 266.00L577.50 269.50L574.00 273.00L562.50 272.50L551.00 272.00L548.50 269.00L546.00 266.00L546.00 190.50L546.00 115.00L549.00 111.50L552.00 108.00L552.00 107.50ZM921.00 107.50L921.00 107.00L977.50 107.00Q1034.00 107.00 1044.00 110.50Q1054.00 114.00 1060.00 119.00Q1066.00 124.00 1071.50 133.00Q1077.00 142.00 1078.50 149.50Q1080.00 157.00 1080.00 190.50Q1080.00 224.00 1076.50 235.00Q1073.00 246.00 1066.50 253.50Q1060.00 261.00 1053.50 265.00Q1047.00 269.00 1039.50 271.00Q1032.00 273.00 978.00 273.00Q924.00 273.00 912.50 269.50Q901.00 266.00 893.50 259.50Q886.00 253.00 880.50 239.50Q875.00 226.00 875.50 187.00Q876.00 148.00 878.50 141.50Q881.00 135.00 887.00 127.50Q893.00 120.00 901.50 115.00Q910.00 110.00 915.50 109.00L921.00 108.00L921.00 107.50ZM1185.00 107.50L1185.00 107.00L1197.00 107.00L1209.00 107.00L1213.00 109.50Q1217.00 112.00 1283.00 173.50L1349.00 235.00L1350.00 174.00L1351.00 113.00L1354.00 110.00L1357.00 107.00L1370.00 108.00L1383.00 109.00L1384.50 113.00Q1386.00 117.00 1385.00 193.00L1384.00 269.00L1380.50 271.00Q1377.00 273.00 1362.50 273.00Q1348.00 273.00 1344.50 271.50Q1341.00 270.00 1277.00 212.50L1213.00 155.00L1213.00 210.50L1213.00 266.00L1209.50 269.50L1206.00 273.00L1194.50 272.50L1183.00 272.00L1180.50 268.00L1178.00 264.00L1178.00 193.50Q1178.00 123.00 1178.50 117.50L1179.00 112.00L1182.00 110.00L1185.00 108.00L1185.00 107.50ZM1485.00 107.50L1485.00 107.00L1496.50 107.00L1508.00 107.00L1511.00 110.00L1514.00 113.00L1514.00 179.00L1514.00 245.00L1586.50 245.00L1659.00 245.00L1663.00 248.50L1667.00 252.00L1666.00 261.00L1665.00 270.00L1662.50 271.50Q1660.00 273.00 1572.00 272.50L1484.00 272.00L1481.50 268.50L1479.00 265.00L1479.00 190.00L1479.00 115.00L1482.00 111.50L1485.00 108.00L1485.00 107.50ZM210.00 125.50L210.00 125.00L230.00 127.00Q250.00 129.00 267.50 138.50Q285.00 148.00 295.50 160.50Q306.00 173.00 310.50 183.00Q315.00 193.00 317.00 203.00Q319.00 213.00 319.00 223.00Q319.00 233.00 316.50 244.50Q314.00 256.00 305.50 271.00Q297.00 286.00 288.00 294.50Q279.00 303.00 271.50 307.50Q264.00 312.00 246.50 317.00Q229.00 322.00 210.00 320.00Q191.00 318.00 173.50 308.50Q156.00 299.00 144.00 284.00Q132.00 269.00 127.00 253.50Q122.00 238.00 123.00 218.00Q124.00 198.00 132.00 181.50Q140.00 165.00 155.00 151.50Q170.00 138.00 182.00 133.00Q194.00 128.00 202.00 127.00L210.00 126.00L210.00 125.50ZM932.50 138.00Q932.00 138.00 923.00 143.50L914.00 149.00L911.00 157.00Q908.00 165.00 908.00 190.50Q908.00 216.00 909.50 221.50Q911.00 227.00 915.00 232.00Q919.00 237.00 927.00 240.50Q935.00 244.00 978.00 244.00Q1021.00 244.00 1030.50 238.50L1040.00 233.00L1043.00 227.00Q1046.00 221.00 1046.00 191.00Q1046.00 161.00 1041.50 153.00L1037.00 145.00L1030.00 141.50Q1023.00 138.00 978.00 138.00Q933.00 138.00 932.50 138.00ZM15.00 234.50L15.00 234.00L20.50 234.50L26.00 235.00L30.00 238.00L34.00 241.00L41.00 267.00Q48.00 293.00 55.00 306.50Q62.00 320.00 69.50 330.00Q77.00 340.00 91.00 353.50Q105.00 367.00 115.00 373.50Q125.00 380.00 138.00 386.00Q151.00 392.00 171.50 397.50L192.00 403.00L195.00 407.00L198.00 411.00L198.50 417.00L199.00 423.00L195.00 429.00L191.00 435.00L185.50 436.50Q180.00 438.00 169.50 436.00Q159.00 434.00 139.50 426.50Q120.00 419.00 105.00 410.00Q90.00 401.00 71.00 383.50Q52.00 366.00 37.00 344.50Q22.00 323.00 13.00 300.00Q4.00 277.00 2.00 263.00L0.00 249.00L4.00 243.00L8.00 237.00L11.50 236.00L15.00 235.00L15.00 234.50ZM418.00 234.50L418.00 234.00L423.50 234.50L429.00 235.00L434.00 239.50L439.00 244.00L439.00 255.50Q439.00 267.00 430.00 292.00Q421.00 317.00 406.00 339.50Q391.00 362.00 375.50 377.00Q360.00 392.00 342.00 404.00Q324.00 416.00 299.50 425.50Q275.00 435.00 264.50 436.00L254.00 437.00L251.00 435.50L248.00 434.00L244.50 427.50L241.00 421.00L243.50 413.00L246.00 405.00L279.50 393.00Q313.00 381.00 324.50 373.50Q336.00 366.00 349.00 353.50Q362.00 341.00 376.50 318.50Q391.00 296.00 398.50 269.00L406.00 242.00L412.00 238.50L418.00 235.00L418.00 234.50ZM575.00 325.50L575.00 325.00L582.50 326.00L590.00 327.00L594.50 331.00L599.00 335.00L596.50 336.50L594.00 338.00L590.00 335.50Q586.00 333.00 580.50 332.50Q575.00 332.00 569.50 334.00L564.00 336.00L560.50 341.50L557.00 347.00L557.50 353.00L558.00 359.00L564.50 364.50L571.00 370.00L577.50 370.00Q584.00 370.00 590.50 367.50L597.00 365.00L598.00 367.50L599.00 370.00L593.50 373.00Q588.00 376.00 576.50 375.50L565.00 375.00L558.00 367.50L551.00 360.00L550.50 352.50Q550.00 345.00 552.00 340.50Q554.00 336.00 560.00 331.50Q566.00 327.00 570.50 326.50L575.00 326.00L575.00 325.50ZM725.00 326.50L725.00 326.00L735.50 326.50L746.00 327.00L753.00 333.50L760.00 340.00L760.00 351.00L760.00 362.00L756.00 367.00Q752.00 372.00 748.00 374.00Q744.00 376.00 733.00 376.00Q722.00 376.00 717.50 373.50Q713.00 371.00 709.50 366.00L706.00 361.00L706.50 350.00L707.00 339.00L711.00 334.50L715.00 330.00L720.00 328.50L725.00 327.00L725.00 326.50ZM874.00 326.50L874.00 326.00L878.00 327.50L882.00 329.00L890.00 342.50L898.00 356.00L907.00 342.50L916.00 329.00L920.00 327.50L924.00 326.00L924.50 351.00L925.00 376.00L922.00 376.00L919.00 376.00L918.50 358.50L918.00 341.00L909.50 353.00L901.00 365.00L898.00 364.00L895.00 363.00L887.50 352.00L880.00 341.00L880.00 358.00L880.00 375.00L876.50 375.50L873.00 376.00L873.50 351.50Q874.00 327.00 874.00 326.50ZM1040.00 326.50L1040.00 326.00L1055.50 326.50L1071.00 327.00L1076.50 332.00L1082.00 337.00L1082.00 342.50L1082.00 348.00L1077.50 353.00L1073.00 358.00L1059.50 358.50L1046.00 359.00L1045.50 367.50L1045.00 376.00L1041.50 375.00L1038.00 374.00L1039.00 350.50Q1040.00 327.00 1040.00 326.50ZM1194.00 326.50L1194.00 326.00L1197.00 327.00L1200.00 328.00L1199.50 352.00L1199.00 376.00L1195.50 375.50L1192.00 375.00L1193.00 351.00Q1194.00 327.00 1194.00 326.50ZM1315.00 326.50L1315.00 326.00L1318.00 326.50L1321.00 327.00L1321.00 348.00L1321.00 369.00L1335.50 369.00L1350.00 369.00L1350.50 372.50L1351.00 376.00L1332.50 376.00L1314.00 376.00L1314.50 351.50Q1315.00 327.00 1315.00 326.50ZM1462.00 326.50L1462.00 326.00L1481.00 326.50L1500.00 327.00L1500.00 330.00L1500.00 333.00L1483.50 333.50L1467.00 334.00L1467.50 341.00L1468.00 348.00L1481.50 348.00L1495.00 348.00L1495.00 351.00L1495.00 354.00L1481.50 354.00L1468.00 354.00L1467.50 361.50L1467.00 369.00L1483.00 369.00L1499.00 369.00L1499.50 372.50L1500.00 376.00L1480.50 376.00L1461.00 376.00L1461.50 351.50Q1462.00 327.00 1462.00 326.50ZM1611.00 326.50L1611.00 326.00L1625.00 326.00Q1639.00 326.00 1645.00 329.00L1651.00 332.00L1652.00 340.50L1653.00 349.00L1647.50 354.00L1642.00 359.00L1648.50 367.50L1655.00 376.00L1651.00 376.00L1647.00 376.00L1640.50 367.50L1634.00 359.00L1625.00 359.00L1616.00 359.00L1616.00 367.50L1616.00 376.00L1612.50 375.50L1609.00 375.00L1610.00 351.00Q1611.00 327.00 1611.00 326.50ZM731.50 332.00Q731.00 332.00 725.50 333.50Q720.00 335.00 717.00 338.00L714.00 341.00L713.00 349.00L712.00 357.00L717.50 363.00L723.00 369.00L731.50 369.50L740.00 370.00L746.00 366.00L752.00 362.00L753.00 353.50L754.00 345.00L750.00 340.00L746.00 335.00L739.00 333.50Q732.00 332.00 731.50 332.00ZM1047.50 333.00L1047.00 333.00L1046.50 343.00L1046.00 353.00L1055.00 353.00Q1064.00 353.00 1069.00 350.50L1074.00 348.00L1074.50 343.50L1075.00 339.00L1073.50 337.00L1072.00 335.00L1060.00 334.00Q1048.00 333.00 1047.50 333.00ZM1618.50 333.00L1618.00 333.00L1617.50 342.50L1617.00 352.00L1628.00 352.00L1639.00 352.00L1642.00 350.00L1645.00 348.00L1645.50 343.50L1646.00 339.00L1644.00 336.50L1642.00 334.00L1630.50 333.50Q1619.00 333.00 1618.50 333.00Z" fill="currentColor" fill-rule="evenodd"/>
</svg>
