<svg xmlns="http://www.w3.org/2000/svg" viewBox="0 0 240 180" role="img"
     aria-label="Multi-outil déplié" fill="none" stroke="currentColor" stroke-width="2"
     stroke-linecap="round" stroke-linejoin="round">

  <path d="M104 30h32a8 8 0 0 1 8 8v88a8 8 0 0 1-8 8h-32a8 8 0 0 1-8-8V38a8 8 0 0 1 8-8z"/>
  <g stroke-width="1.4">
    <path d="M96 52L46 40"/><path d="M46 40l-10 4 10 8"/>
    <path d="M96 74L40 74"/><path d="M40 74l-8 5 8 5"/>
    <path d="M96 96L48 108"/><path d="M48 108l-10-2 8-8"/>
    <path d="M144 52l50-12"/><path d="M194 40l10 4-10 8"/>
    <path d="M144 74h56"/><path d="M200 74l8 5-8 5"/>
    <path d="M144 96l48 12"/><path d="M192 108l10-2-8-8"/>
  </g>
  <circle cx="120" cy="146" r="8" stroke-width="1.4"/>
  <g stroke-width="1" opacity=".45">
    <path d="M20 164h48"/><path d="M20 160v8"/><path d="M68 160v8"/>
  </g>
</svg>
