<svg xmlns="http://www.w3.org/2000/svg" viewBox="0 0 240 180" role="img"
     aria-label="Pneu et jante" fill="none" stroke="currentColor" stroke-width="2"
     stroke-linecap="round" stroke-linejoin="round">

  <circle cx="120" cy="86" r="66"/>
  <circle cx="120" cy="86" r="56" stroke-width="1.4"/>
  <circle cx="120" cy="86" r="30" stroke-width="1.4"/>
  <circle cx="120" cy="86" r="8"/>
  <g stroke-width="1.2" opacity=".75">
    <path d="M120 56v-26"/><path d="M120 116v26"/><path d="M90 86H64"/><path d="M150 86h26"/>
    <path d="M99 65L80 46"/><path d="M141 107l19 19"/><path d="M141 65l19-19"/><path d="M99 107l-19 19"/>
  </g>
  <g stroke-width="1.2" opacity=".6">
    <path d="M120 20v10"/><path d="M162 34l-6 8"/><path d="M186 76l-10 2"/>
  </g>
  <g stroke-width="1" opacity=".45">
    <path d="M20 164h48"/><path d="M20 160v8"/><path d="M68 160v8"/>
  </g>
</svg>
