<svg xmlns="http://www.w3.org/2000/svg" viewBox="0 0 900 330" width="900" height="330" font-family="-apple-system,BlinkMacSystemFont,Segoe UI,Helvetica,Arial,sans-serif">
<rect width="900" height="330" fill="#0D1117"/>
<defs><marker id="f" viewBox="0 0 10 10" refX="9" refY="5" markerWidth="7" markerHeight="7" orient="auto"><path d="M0,0 L10,5 L0,10 z" fill="#30363D"/></marker></defs>
<rect x="30" y="40" width="175" height="76" rx="8" fill="#161B22" stroke="#30363D" stroke-width="1.5"/><text x="117.5" y="70" text-anchor="middle" font-size="15" font-weight="600" fill="#E6EDF3">Guided dialogue</text><text x="117.5" y="90" text-anchor="middle" font-size="12.5" fill="#9198A1">closed questions</text><text x="117.5" y="107" text-anchor="middle" font-size="12.5" fill="#9198A1">no AI, offline</text>
<rect x="255" y="40" width="175" height="76" rx="8" fill="#10312C" stroke="#4CC5B3" stroke-width="1.5"/><text x="342.5" y="70" text-anchor="middle" font-size="15" font-weight="600" fill="#E6EDF3">spec.ml</text><text x="342.5" y="90" text-anchor="middle" font-size="12.5" fill="#9198A1">source of truth</text><text x="342.5" y="107" text-anchor="middle" font-size="12.5" fill="#9198A1">entities · roles · access</text>
<path d="M205,78 L247,78" fill="none" stroke="#30363D" stroke-width="1.8" marker-end="url(#f)"/>
<rect x="505" y="5" width="175" height="76" rx="8" fill="#161B22" stroke="#30363D" stroke-width="1.5"/><text x="592.5" y="35" text-anchor="middle" font-size="15" font-weight="600" fill="#E6EDF3">Backend</text><text x="592.5" y="55" text-anchor="middle" font-size="12.5" fill="#9198A1">SQL · API · auth</text><text x="592.5" y="72" text-anchor="middle" font-size="12.5" fill="#9198A1">access · migrations</text>
<rect x="505" y="128" width="175" height="76" rx="8" fill="#161B22" stroke="#30363D" stroke-width="1.5"/><text x="592.5" y="158" text-anchor="middle" font-size="15" font-weight="600" fill="#E6EDF3">Frontend contract</text><text x="592.5" y="178" text-anchor="middle" font-size="12.5" fill="#9198A1">routes · fields</text><text x="592.5" y="195" text-anchor="middle" font-size="12.5" fill="#9198A1">rules · design</text>
<path d="M430,70 L467,70 L467,43 L497,43" fill="none" stroke="#30363D" stroke-width="1.8" marker-end="url(#f)"/>
<path d="M430,86 L467,86 L467,166 L497,166" fill="none" stroke="#30363D" stroke-width="1.8" marker-end="url(#f)"/>
<text x="342.5" y="136" text-anchor="middle" font-size="11.5" fill="#9198A1">compiled in one deterministic pass</text>
<rect x="725" y="128" width="148" height="76" rx="8" fill="#2A1E3F" stroke="#BC8CFF" stroke-width="1.5" stroke-dasharray="5 4"/><text x="799.0" y="158" text-anchor="middle" font-size="15" font-weight="600" fill="#E6EDF3">Frontend</text><text x="799.0" y="178" text-anchor="middle" font-size="12.5" fill="#9198A1">written by an AI</text><text x="799.0" y="195" text-anchor="middle" font-size="12.5" fill="#9198A1">against the contract</text>
<path d="M680,166 L717,166" fill="none" stroke="#30363D" stroke-width="1.8" marker-end="url(#f)"/>
<rect x="505" y="240" width="368" height="58" rx="8" fill="none" stroke="#4CC5B3" stroke-width="1.8"/>
<text x="689" y="266" text-anchor="middle" font-size="15" font-weight="600" fill="#4CC5B3">monl run</text>
<text x="689" y="285" text-anchor="middle" font-size="12.5" fill="#9198A1">consistency + smoke test before any launch</text>
<path d="M592,81 L592,96 L487,96 L487,269 L499,269" fill="none" stroke="#4CC5B3" stroke-width="1.4" stroke-dasharray="4 4"/>
<path d="M799,204 L799,240" fill="none" stroke="#4CC5B3" stroke-width="1.4" stroke-dasharray="4 4"/>
</svg>